<svg width="311" height="335" viewBox="0 0 311 335" fill="none" xmlns="http://www.w3.org/2000/svg">
<path d="M332.252 179.466C286.596 124.306 233.351 84.2654 184.199 64.1036C135.02 43.9306 90.1 43.7118 60.8955 67.8844C31.6909 92.0571 23.5111 136.226 34.138 188.309C44.7589 240.363 74.1432 300.153 119.8 355.313C165.456 410.474 218.701 450.514 267.853 470.676C317.032 490.849 361.952 491.068 391.156 466.895C420.361 442.722 428.541 398.553 417.914 346.47C407.293 294.416 377.909 234.627 332.252 179.466Z" stroke="#D9D9D9" stroke-width="1.22827"/>
<ellipse rx="2.56661" ry="4.4181" transform="matrix(-0.81571 0.578462 0.578462 0.81571 162.452 72.0888)" fill="#4A505D"/>
<ellipse rx="1.32168" ry="2.2751" transform="matrix(-0.614242 0.789118 0.789118 0.614242 140.608 79.5891)" fill="#D26700"/>
<ellipse rx="2.20911" ry="3.80271" transform="matrix(-0.233397 0.972381 0.972381 0.233397 148.461 110.613)" fill="#A6CEC0"/>
</svg>
