<svg width="358" height="250" viewBox="0 0 358 250" fill="none" xmlns="http://www.w3.org/2000/svg">
<path d="M292.423 103.233C259.753 63.7623 221.653 35.1111 186.482 20.6842C151.291 6.24912 119.148 6.09262 98.2508 23.3896C77.3532 40.6865 71.5001 72.2921 79.1043 109.561C86.7042 146.808 107.73 189.591 140.4 229.062C173.07 268.533 211.17 297.184 246.341 311.611C281.532 326.046 313.675 326.203 334.572 308.906C355.47 291.609 361.323 260.003 353.719 222.734C346.119 185.487 325.093 142.704 292.423 103.233Z" stroke="#D9D9D9" stroke-width="0.878898"/>
<ellipse rx="3.5547" ry="6.11897" transform="matrix(-0.81571 0.578462 0.578462 0.81571 185.864 7.0477)" fill="#4A505D"/>
<ellipse rx="1.83049" ry="3.15096" transform="matrix(-0.614242 0.789118 0.789118 0.614242 155.611 17.4367)" fill="#D26700"/>
<ellipse rx="3.05957" ry="5.26666" transform="matrix(-0.233397 0.972381 0.972381 0.233397 166.488 60.4046)" fill="#A6CEC0"/>
<ellipse rx="3.40316" ry="5.85811" transform="matrix(-0.104692 0.994505 0.994505 0.104692 283.778 91.0355)" fill="#EEB087"/>
<ellipse rx="1.97144" ry="3.39359" transform="matrix(-0.614242 0.789118 0.789118 0.614242 293.969 125.952)" fill="#FCB436"/>
</svg>
